# xmcd
#
# Track frame offsets:
#	150
#	31136
#	56638
#	63240
#	102015
#	128045
#	170176
#	204534
#	225008
#	244355
#	266721
#	285922
#	313665
#
# Disc length: 4582 seconds
#
# Revision: 1
# Processed by: cddbd v1.4PL0 Copyright (c) Steve Scherf et al.
# Submitted via: EasyCDDAExtractor 6.0.0.1
#
DISCID=af11e40d
DTITLE=continuous mix by DJ JustinR - Dreams of Progressive
DYEAR=1900
DGENRE=
TTITLE0=Deep Dark Jungle - Paulo's Deep Mix Edit
TTITLE1=Love Me - Vocal Mix
TTITLE2=I feel You - Logo Side
TTITLE3=We Got Love - Main Mix
TTITLE4=Stranger in my House - Chico and Tony Ruiz 2003 Rework
TTITLE5=Save my soul - Gabriel and Dresden 
TTITLE6=Back Together - Main Mix
TTITLE7=Stars (Original Club Mix)
TTITLE8=Our Lips Are Sealed - Joe Bermudez and DJ Rico Go Go Dance Bootleg
TTITLE9=All Things - Barry Harris Mix
TTITLE10=I Love Love - Georgie's Anthem Mix
TTITLE11=Just So You Know - Murk Remix
TTITLE12=White Flag Beginner's Remix - MTC
EXTD=
EXTT0=
EXTT1=
EXTT2=
EXTT3=
EXTT4=
EXTT5=
EXTT6=
EXTT7=
EXTT8=
EXTT9=
EXTT10=
EXTT11=
EXTT12=
PLAYORDER=
